<?xml version="1.0" encoding="UTF-8"?>
<svg width="169px" height="51px" viewBox="0 0 169 51" version="1.1" xmlns="http://www.w3.org/2000/svg" xmlns:xlink="http://www.w3.org/1999/xlink">
    <title>0AE1C031-0C9D-4D4F-B3A1-1B81CD255D38</title>
    <defs>
        <path d="M0.419479063,11.6521374 L16.9630703,17.1686662 C18.8927798,17.7473675 20.3610447,15.7880352 20.2871642,12.8049555 L20.2871642,12.8049555 C20.2113441,9.72119366 18.5790962,6.81111276 16.6880021,6.10439898 L16.6880021,6.10439898 L0,0 L0.419479063,11.6521374 Z" id="path-1"></path>
        <linearGradient x1="-0.000334144026%" y1="50.0003752%" x2="100.000048%" y2="50.0003752%" id="linearGradient-3">
            <stop stop-color="#0A706B" offset="0%"></stop>
            <stop stop-color="#04C382" offset="100%"></stop>
        </linearGradient>
        <polygon id="path-4" points="0 0 27.0500166 0 27.0500166 18.0735653 0 18.0735653"></polygon>
        <path d="M0.217409704,12.1714169 L15.67695,16.8623883 C17.759005,17.422928 19.6060176,15.5034454 19.7135764,12.1313909 L19.7135764,12.1313909 C19.8264249,8.58988736 18.0799179,5.63537236 15.9812883,5.11027415 L15.9812883,5.11027415 L0,0 L0.217409704,12.1714169 Z" id="path-6"></path>
        <linearGradient x1="-0.92741853%" y1="57.8886082%" x2="95.1471581%" y2="40.3254618%" id="linearGradient-8">
            <stop stop-color="#0A706B" offset="0%"></stop>
            <stop stop-color="#04C382" offset="100%"></stop>
        </linearGradient>
        <linearGradient x1="0.000125546256%" y1="50.0001749%" x2="99.999777%" y2="50.0001749%" id="linearGradient-9">
            <stop stop-color="#0A706B" offset="0%"></stop>
            <stop stop-color="#04C382" offset="100%"></stop>
        </linearGradient>
    </defs>
    <g id="Dashboard" stroke="none" stroke-width="1" fill="none" fill-rule="evenodd">
        <g transform="translate(-36.000000, -17.000000)" id="sidemenu">
            <g id="logo" transform="translate(36.065336, 17.500000)">
                <g id="Group-3" transform="translate(26.638419, 0.000000)">
                    <mask id="mask-2" fill="white">
                        <use xlink:href="#path-1"></use>
                    </mask>
                    <g id="Clip-2"></g>
                    <path d="M0.419479063,11.6521374 L16.9630703,17.1686662 C18.8927798,17.7473675 20.3610447,15.7880352 20.2871642,12.8049555 L20.2871642,12.8049555 C20.2113441,9.72119366 18.5790962,6.81111276 16.6880021,6.10439898 L16.6880021,6.10439898 L0,0 L0.419479063,11.6521374 Z" id="Fill-1" fill="url(#linearGradient-3)" mask="url(#mask-2)"></path>
                </g>
                <g id="Group-6" transform="translate(0.000000, 0.000176)">
                    <mask id="mask-5" fill="white">
                        <use xlink:href="#path-4"></use>
                    </mask>
                    <g id="Clip-5"></g>
                    <path d="M0.059651016,13.695965 C-0.405672753,10.3205603 1.90701636,6.77359063 5.05178689,5.90395181 L26.7754773,-0.000141060635 L27.0500166,11.7893542 L6.49748207,17.7807283 C3.45339357,18.8055338 0.524974785,17.0685484 0.059651016,13.695965" id="Fill-4" fill="#06C482" mask="url(#mask-5)"></path>
                </g>
                <g id="Group-9" transform="translate(27.136187, 15.445082)">
                    <mask id="mask-7" fill="white">
                        <use xlink:href="#path-6"></use>
                    </mask>
                    <g id="Clip-8"></g>
                    <path d="M0.217409704,12.1714169 L15.67695,16.8623883 C17.759005,17.422928 19.6060176,15.5034454 19.7135764,12.1313909 L19.7135764,12.1313909 C19.8264249,8.58988736 18.0799179,5.63537236 15.9812883,5.11027415 L15.9812883,5.11027415 L0,0 L0.217409704,12.1714169 Z" id="Fill-7" fill="url(#linearGradient-8)" mask="url(#mask-7)"></path>
                </g>
                <g transform="translate(0.008155, 3.679214)">
                    <g id="Group-17" transform="translate(0.000000, 11.630150)">
                        <path d="M0.223025394,30.3525282 C-0.353736277,26.9104723 2.03988637,23.2723422 5.3562219,22.3944161 L27.3976514,15.9022767 L27.4824641,28.2098171 L7.06270293,34.362353 C3.91493486,35.4502832 0.794320965,33.7633743 0.223025394,30.3525282" id="Fill-15" fill="#04C482"></path>
                        <path d="M0.0859673541,14.4502514 C-0.490794317,11.0081956 1.90282833,7.37006552 5.21916386,6.4921394 L27.2605934,0 L27.3454061,12.3070114 L6.92564489,18.4600763 C3.77734784,19.5474775 0.657262926,17.8612739 0.0859673541,14.4502514" id="Fill-10" fill="#04C482"></path>
                        <path d="M27.4824465,28.2099582 L42.9421631,32.9004006 C45.0242181,33.460764 46.8710544,31.5412814 46.9786132,28.1694032 L46.9786132,28.1694032 C47.0912853,24.6278997 45.345131,21.6739137 43.2461488,21.1484628 L43.2461488,21.1484628 L27.2650368,16.037836 L27.4824465,28.2099582 Z" id="Fill-12" fill="url(#linearGradient-9)"></path>
                    </g>
                    <path d="M168.320382,33.4622275 C168.17844,33.5657307 167.998058,33.6170415 167.779062,33.6170415 C167.444043,33.6170415 167.141291,33.4946714 166.870631,33.2497549 C166.548308,32.9535276 166.206765,32.7445815 165.846531,32.6218588 C165.485063,32.4994887 165.046894,32.437951 164.531846,32.437951 C163.939391,32.437951 163.452908,32.538104 163.072926,32.7377048 C162.692768,32.9378346 162.502512,33.2176636 162.502512,33.5786025 C162.502512,33.8363908 162.567048,34.0516846 162.695765,34.2257182 C162.824483,34.3997517 163.0694,34.5609135 163.430162,34.7092035 C163.791101,34.8571408 164.312497,35.0026096 164.995759,35.1440229 C166.400018,35.4275548 167.395729,35.8202323 167.98166,36.3231135 C168.568296,36.8252894 168.861173,37.4759315 168.861173,38.27504 C168.861173,38.8680237 168.699835,39.4058173 168.37804,39.8887737 C168.055717,40.3719064 167.582458,40.7524174 166.95756,41.0294252 C166.332485,41.3064331 165.582219,41.4448488 164.705879,41.4448488 C163.82954,41.4448488 163.005217,41.3094306 162.231852,41.0387705 C161.459016,40.7681104 160.853337,40.4136956 160.415168,39.976055 C160.247482,39.8083691 160.164256,39.6084157 160.164256,39.3767236 C160.164256,39.0676245 160.292798,38.8161839 160.550586,38.6229308 C160.79515,38.4425495 161.020847,38.352447 161.226972,38.352447 C161.48476,38.352447 161.729676,38.4682931 161.961368,38.7003378 C162.206285,38.9709979 162.573572,39.2060402 163.063052,39.4058173 C163.552356,39.6054181 164.074457,39.7053949 164.628472,39.7053949 C165.362869,39.7053949 165.933107,39.5826721 166.338833,39.3382846 C166.745087,39.0931917 166.948038,38.7648731 166.948038,38.352447 C166.948038,37.9530691 166.748085,37.6214003 166.348707,37.3567353 C165.949505,37.0929519 165.272767,36.8707814 164.319373,36.6904001 C161.845522,36.2136152 160.608773,35.1958627 160.608773,33.636261 C160.608773,33.0053674 160.79515,32.4703949 161.169313,32.0322253 C161.542418,31.5945847 162.032251,31.2657371 162.638107,31.0463878 C163.243433,30.8275675 163.887551,30.7182455 164.570814,30.7182455 C165.408185,30.7182455 166.158451,30.853311 166.822494,31.1237948 C167.485832,31.3944549 168.010754,31.7680893 168.39726,32.2446979 C168.564769,32.4513517 168.648701,32.6573002 168.648701,32.8632488 C168.648701,33.0825981 168.539202,33.2823752 168.320382,33.4622275 L168.320382,33.4622275 Z M155.52583,38.9128104 C155.808833,39.2608775 156.1569,39.4347348 156.569326,39.4347348 L157.226492,39.4347348 C157.458537,39.4347348 157.654787,39.5250136 157.815949,39.7053949 C157.977111,39.8857762 158.057515,40.1174682 158.057515,40.4010001 C158.057515,40.6843557 157.951544,40.9165767 157.738542,41.096958 C157.526069,41.2773393 157.252059,41.3674418 156.917393,41.3674418 L156.569326,41.3674418 C155.937903,41.3674418 155.361318,41.2029298 154.839746,40.8746112 C154.317822,40.5457636 153.908569,40.0982487 153.612342,39.5313613 C153.315586,38.9646502 153.167825,38.3267035 153.167825,37.6178738 L153.167825,32.8440293 L152.278614,32.8440293 C152.007954,32.8440293 151.789133,32.7667986 151.621624,32.6119845 C151.453938,32.4576994 151.370183,32.2639174 151.370183,32.0322253 C151.370183,31.774437 151.453938,31.5684885 151.621624,31.4136744 C151.789133,31.2593893 152.007954,31.1819823 152.278614,31.1819823 L153.167825,31.1819823 L153.167825,28.3985033 C153.167825,28.1156768 153.257927,27.8834557 153.438309,27.7030744 C153.618866,27.5226931 153.850558,27.4324143 154.134443,27.4324143 C154.417269,27.4324143 154.64949,27.5226931 154.829872,27.7030744 C155.010253,27.8834557 155.100532,28.1156768 155.100532,28.3985033 L155.100532,31.1819823 L156.743359,31.1819823 C157.014019,31.1819823 157.23284,31.2593893 157.400349,31.4136744 C157.568035,31.5684885 157.65179,31.774437 157.65179,32.0322253 C157.65179,32.2639174 157.568035,32.4576994 157.400349,32.6119845 C157.23284,32.7667986 157.014019,32.8440293 156.743359,32.8440293 L155.100532,32.8440293 L155.100532,37.6178738 C155.100532,38.1334504 155.241945,38.5649196 155.52583,38.9128104 L155.52583,38.9128104 Z M148.973563,33.675229 C148.845022,33.7653315 148.696555,33.8102946 148.529575,33.8102946 C148.232819,33.8102946 147.981378,33.6944486 147.775429,33.4622275 C147.453459,33.1146893 147.102041,32.8604276 146.722059,32.6992658 C146.341901,32.538104 145.907258,32.4576994 145.417777,32.4576994 C144.425063,32.4576994 143.620136,32.7893683 143.001585,33.4528822 C142.383387,34.1167488 142.073935,34.9962619 142.073935,36.0908924 C142.073935,36.7868503 142.218698,37.4083988 142.508578,37.9560667 C142.798987,38.5037346 143.204536,38.9320299 143.726637,39.241129 C144.248032,39.5505808 144.844013,39.7053949 145.514404,39.7053949 C146.390214,39.7053949 147.099044,39.4802268 147.640364,39.0286565 C147.884751,38.8482752 148.12332,38.7579964 148.355541,38.7579964 C148.535394,38.7579964 148.703079,38.8161839 148.857717,38.9320299 C149.102281,39.1385074 149.225004,39.3701995 149.225004,39.6279878 C149.225004,39.8212409 149.147597,39.9952745 148.993312,40.1495595 C148.065133,41.0132033 146.905791,41.4448488 145.514404,41.4448488 C144.496122,41.4448488 143.581697,41.2128041 142.769893,40.7488909 C141.958089,40.2851541 141.32314,39.6443861 140.865751,38.8255292 C140.408361,38.0079064 140.179667,37.0959494 140.179667,36.0908924 C140.179667,35.0602682 140.401837,34.1359683 140.846531,33.3172877 C141.291048,32.4994887 141.912597,31.8617183 142.711705,31.4043292 C143.510637,30.94694 144.41272,30.7182455 145.417777,30.7182455 C146.937882,30.7182455 148.200727,31.2978284 149.205784,32.4576994 C149.334502,32.5996417 149.399037,32.7667986 149.399037,32.9598753 C149.399037,33.2434072 149.257095,33.481976 148.973563,33.675229 L148.973563,33.675229 Z M135.077504,33.1531284 C134.549055,32.6380807 133.859974,32.3802924 133.009731,32.3802924 C132.06868,32.3802924 131.305719,32.6380807 130.719083,33.1531284 C130.133152,33.668705 129.762339,34.3583152 129.60823,35.2214299 L136.044122,35.2214299 C135.928276,34.3583152 135.605952,33.668705 135.077504,33.1531284 L135.077504,33.1531284 Z M137.571103,36.5257118 C137.403594,36.6874026 137.190592,36.7676308 136.933333,36.7676308 L129.589011,36.7676308 C129.730424,37.6697136 130.1395,38.3977628 130.815709,38.9512494 C131.492624,39.5057941 132.320121,39.7822729 133.299611,39.7822729 C133.685941,39.7822729 134.088669,39.7119189 134.507619,39.5699767 C134.926216,39.428387 135.271286,39.2543535 135.541241,39.047876 C135.721798,38.9064627 135.934623,38.8354034 136.179187,38.8354034 C136.424104,38.8354034 136.617357,38.8999386 136.759299,39.0286565 C136.990991,39.2219095 137.106837,39.4412588 137.106837,39.6856464 C137.106837,39.9178674 137.003863,40.1111205 136.797738,40.2659346 C136.359569,40.6132964 135.815427,40.8973572 135.164785,41.1161775 C134.514143,41.3355268 133.892065,41.4448488 133.299611,41.4448488 C132.242714,41.4448488 131.295844,41.2161543 130.458473,40.7587652 C129.620926,40.301376 128.966933,39.6664269 128.496672,38.8546229 C128.026412,38.042819 127.791193,37.1220457 127.791193,36.0908924 C127.791193,35.0602682 128.01354,34.1359683 128.458233,33.3172877 C128.902751,32.4994887 129.520949,31.8617183 130.313533,31.4043292 C131.106118,30.94694 132.004674,30.7182455 133.009731,30.7182455 C134.001387,30.7182455 134.858683,30.9370658 135.580209,31.3752354 C136.30191,31.813405 136.855926,32.4256081 137.242432,33.2113159 C137.628762,33.9975526 137.822015,34.8996354 137.822015,35.9168589 C137.822015,36.1619517 137.73826,36.3649027 137.571103,36.5257118 L137.571103,36.5257118 Z M122.998305,38.9128104 C123.281661,39.2608775 123.629552,39.4347348 124.042154,39.4347348 L124.69932,39.4347348 C124.930836,39.4347348 125.127616,39.5250136 125.288777,39.7053949 C125.44941,39.8857762 125.530344,40.1174682 125.530344,40.4010001 C125.530344,40.6843557 125.423843,40.9165767 125.21137,41.096958 C124.998898,41.2773393 124.724887,41.3674418 124.389692,41.3674418 L124.042154,41.3674418 C123.410731,41.3674418 122.834146,41.2029298 122.312045,40.8746112 C121.79065,40.5457636 121.381045,40.0982487 121.084818,39.5313613 C120.78859,38.9646502 120.640653,38.3267035 120.640653,37.6178738 L120.640653,32.8440293 L119.751442,32.8440293 C119.480782,32.8440293 119.261433,32.7667986 119.094276,32.6119845 C118.926766,32.4576994 118.843012,32.2639174 118.843012,32.0322253 C118.843012,31.774437 118.926766,31.5684885 119.094276,31.4136744 C119.261433,31.2593893 119.480782,31.1819823 119.751442,31.1819823 L120.640653,31.1819823 L120.640653,28.3985033 C120.640653,28.1156768 120.730403,27.8834557 120.911137,27.7030744 C121.091165,27.5226931 121.32321,27.4324143 121.606742,27.4324143 C121.890098,27.4324143 122.12179,27.5226931 122.3027,27.7030744 C122.482729,27.8834557 122.57336,28.1156768 122.57336,28.3985033 L122.57336,31.1819823 L124.216187,31.1819823 C124.486319,31.1819823 124.705668,31.2593893 124.873177,31.4136744 C125.040334,31.5684885 125.124089,31.774437 125.124089,32.0322253 C125.124089,32.2639174 125.040334,32.4576994 124.873177,32.6119845 C124.705668,32.7667986 124.486319,32.8440293 124.216187,32.8440293 L122.57336,32.8440293 L122.57336,37.6178738 C122.57336,38.1334504 122.714773,38.5649196 122.998305,38.9128104 L122.998305,38.9128104 Z M115.151631,30.7951235 C115.447858,30.7951235 115.686427,30.885755 115.866808,31.0657836 C116.04719,31.2465176 116.137469,31.4847337 116.137469,31.780961 L116.137469,40.3817806 C116.137469,40.6651362 116.04719,40.9007074 115.866808,41.0870838 C115.686427,41.2738128 115.447858,41.3674418 115.151631,41.3674418 C114.868099,41.3674418 114.633057,41.2738128 114.446152,41.0870838 C114.259423,40.9007074 114.166323,40.6651362 114.166323,40.3817806 L114.166323,31.780961 C114.166323,31.4847337 114.259423,31.2465176 114.446152,31.0657836 C114.633057,30.885755 114.868099,30.7951235 115.151631,30.7951235 L115.151631,30.7951235 Z M116.050716,28.6982572 C115.799276,28.9496978 115.499522,29.0752417 115.151631,29.0752417 C114.804093,29.0752417 114.504339,28.9496978 114.253075,28.6982572 C114.001634,28.4468166 113.875914,28.1475917 113.875914,27.799701 C113.875914,27.4516338 114.001634,27.1520563 114.253075,26.9006157 C114.504339,26.6497041 114.804093,26.5239838 115.151631,26.5239838 C115.499522,26.5239838 115.799276,26.6497041 116.050716,26.9006157 C116.301452,27.1520563 116.427172,27.4516338 116.427172,27.799701 C116.427172,28.1475917 116.301452,28.4468166 116.050716,28.6982572 L116.050716,28.6982572 Z M110.020374,41.1063033 C109.833469,41.2935613 109.597898,41.3868376 109.315071,41.3868376 C109.03101,41.3868376 108.795968,41.2935613 108.609591,41.1063033 C108.422333,40.9199269 108.329233,40.6843557 108.329233,40.4010001 L108.329233,35.6463751 C108.329233,34.602879 108.048699,33.8136448 107.488336,33.2788487 C106.927796,32.7445815 106.184054,32.476919 105.256404,32.476919 C104.715084,32.476919 104.222253,32.5864173 103.777736,32.8052376 C103.333042,33.0245869 102.984975,33.3208142 102.733711,33.6944486 C102.482799,34.0680829 102.357079,34.487033 102.357079,34.9507698 L102.357079,40.4010001 C102.357079,40.6843557 102.266976,40.9199269 102.086419,41.1063033 C101.906037,41.2935613 101.667469,41.3868376 101.371241,41.3868376 C101.087886,41.3868376 100.852667,41.2935613 100.665938,41.1063033 C100.479033,40.9199269 100.385404,40.6843557 100.385404,40.4010001 L100.385404,27.2583808 C100.385404,26.9621534 100.479033,26.7235846 100.665938,26.5432033 C100.852667,26.3628221 101.087886,26.2725433 101.371241,26.2725433 C101.667469,26.2725433 101.906037,26.3628221 102.086419,26.5432033 C102.266976,26.7235846 102.357079,26.9621534 102.357079,27.2583808 L102.357079,31.9937863 C102.769152,31.5813602 103.258633,31.2623869 103.826049,31.0370425 C104.39276,30.8118745 104.998087,30.698497 105.64291,30.698497 C106.531592,30.698497 107.330524,30.8917501 108.039354,31.2786089 C108.747655,31.665115 109.30167,32.2290049 109.701401,32.9697495 C110.100779,33.7106705 110.30038,34.602879 110.30038,35.6463751 L110.30038,40.4010001 C110.30038,40.6843557 110.207103,40.9199269 110.020374,41.1063033 L110.020374,41.1063033 Z M96.6363648,33.675229 C96.507118,33.7653315 96.358828,33.8102946 96.1918475,33.8102946 C95.8950912,33.8102946 95.6436506,33.6944486 95.4380547,33.4622275 C95.1157311,33.1146893 94.7643138,32.8604276 94.3846844,32.6992658 C94.0041733,32.538104 93.5695303,32.4576994 93.0800499,32.4576994 C92.0878646,32.4576994 91.2824084,32.7893683 90.6642102,33.4528822 C90.0456593,34.1167488 89.7360312,34.9962619 89.7360312,36.0908924 C89.7360312,36.7868503 89.880971,37.4083988 90.1713796,37.9560667 C90.4610828,38.5037346 90.8668085,38.9320299 91.3889092,39.241129 C91.9108335,39.5505808 92.5062857,39.7053949 93.1766764,39.7053949 C94.0524866,39.7053949 94.7613163,39.4802268 95.3026365,39.0286565 C95.547024,38.8482752 95.7855928,38.7579964 96.0178139,38.7579964 C96.1981952,38.7579964 96.3657047,38.8161839 96.5199898,38.9320299 C96.7650826,39.1385074 96.8872764,39.3701995 96.8872764,39.6279878 C96.8872764,39.8212409 96.8103984,39.9952745 96.6555843,40.1495595 C95.7279343,41.0132033 94.5680632,41.4448488 93.1766764,41.4448488 C92.1587476,41.4448488 91.2439694,41.2128041 90.4321654,40.7488909 C89.6201851,40.2851541 88.9854123,39.6443861 88.5285521,38.8255292 C88.0709867,38.0079064 87.8422922,37.0959494 87.8422922,36.0908924 C87.8422922,35.0602682 88.064639,34.1359683 88.5093326,33.3172877 C88.953321,32.4994887 89.5748694,31.8617183 90.3739779,31.4043292 C91.1729101,30.94694 92.0749928,30.7182455 93.0800499,30.7182455 C94.6001545,30.7182455 95.8629999,31.2978284 96.8680569,32.4576994 C96.9965984,32.5996417 97.06131,32.7667986 97.06131,32.9598753 C97.06131,33.2434072 96.9193677,33.481976 96.6363648,33.675229 L96.6363648,33.675229 Z M85.9480242,31.9548183 C85.8321781,32.3674206 85.5743898,32.5735455 85.1751882,32.5735455 C85.110653,32.5735455 85.0140264,32.5606737 84.8853086,32.5345775 C84.369732,32.4448277 83.9507819,32.3995119 83.6289873,32.3995119 C82.7013373,32.3995119 81.9540686,32.6119845 81.3871812,33.0372823 C80.8199411,33.4622275 80.5364092,34.0359916 80.5364092,34.7575168 L80.5364092,40.4010001 C80.5364092,40.7104519 80.4560047,40.9484917 80.2948429,41.1161775 C80.1336811,41.283687 79.8921148,41.3674418 79.5703202,41.3674418 C79.2612211,41.3674418 79.0226523,41.2872136 78.8551428,41.1260518 C78.687457,40.96489 78.6037022,40.7233237 78.6037022,40.4010001 L78.6037022,31.7617415 C78.6037022,31.4526424 78.687457,31.2140736 78.8551428,31.0463878 C79.0226523,30.8794073 79.2612211,30.7951235 79.5703202,30.7951235 C80.2146147,30.7951235 80.5364092,31.1174471 80.5364092,31.7617415 L80.5364092,32.1288518 C80.923268,31.6778105 81.399524,31.3239246 81.9667641,31.0657836 C82.5336515,30.808348 83.1389779,30.6792775 83.7838014,30.6792775 C84.4663585,30.6792775 85.0011546,30.7827807 85.3876608,30.9887293 C85.7745196,31.1948541 85.9677726,31.4526424 85.9677726,31.7617415 C85.9677726,31.851844 85.9608959,31.9163793 85.9480242,31.9548183 L85.9480242,31.9548183 Z M69.751971,29.5001869 L66.930582,36.380772 L72.5157015,36.380772 L69.751971,29.5001869 Z M75.9179077,41.0777385 C75.7241257,41.2709916 75.4855569,41.3674418 75.202554,41.3674418 C75.0093009,41.3674418 74.8255694,41.3127808 74.6515359,41.2029298 C74.4775023,41.0939605 74.352311,40.942144 74.274904,40.7488909 L73.1926162,38.042819 L66.2538436,38.042819 L65.1521601,40.7488909 C65.0620576,40.942144 64.9328108,41.0939605 64.7656539,41.2029298 C64.5981444,41.3127808 64.4177631,41.3674418 64.2245101,41.3674418 C63.9411545,41.3674418 63.7059359,41.2674651 63.5192069,41.0678643 C63.3323015,40.8682635 63.2386725,40.6330449 63.2386725,40.3625611 C63.2386725,40.2338433 63.2707638,40.0853769 63.3352991,39.9178674 L68.7666625,26.949458 C68.9599156,26.4984166 69.2753624,26.2725433 69.713532,26.2725433 C70.1774452,26.2725433 70.492892,26.4984166 70.6604015,26.949458 L76.1109845,39.9563065 C76.175167,40.1239923 76.207611,40.2659346 76.207611,40.3817806 C76.207611,40.6522644 76.1109845,40.8839565 75.9179077,41.0777385 L75.9179077,41.0777385 Z M137.242432,5.83708907 L131.328465,19.1343461 C131.173651,19.5335477 130.92221,19.7331485 130.574672,19.7331485 C130.445601,19.7331485 130.290787,19.6947095 130.110935,19.6173025 C129.724076,19.449793 129.530823,19.1983524 129.530823,18.8636861 C129.530823,18.708872 129.569615,18.5545869 129.647022,18.3999492 L131.579729,14.0508735 L127.23083,5.79865005 C127.166294,5.68227503 127.134203,5.54720947 127.134203,5.39239542 C127.134203,5.22541489 127.185514,5.07060085 127.289017,4.92865858 C127.391991,4.78706897 127.527057,4.677218 127.694743,4.59981098 C127.810941,4.54850017 127.939659,4.52293293 128.081602,4.52293293 C128.441835,4.52293293 128.712495,4.70331422 128.892877,5.06407679 L132.430148,12.098947 L135.54177,5.0832963 C135.708926,4.70966195 135.960367,4.52293293 136.295386,4.52293293 C136.462543,4.52293293 136.617357,4.55502423 136.759299,4.61955947 C137.158501,4.77384454 137.358631,5.02528512 137.358631,5.37317591 C137.358631,5.50242272 137.319663,5.65670779 137.242432,5.83708907 L137.242432,5.83708907 Z M124.930836,7.40250947 C124.802294,7.49278828 124.654004,7.53757503 124.486319,7.53757503 C124.190091,7.53757503 123.938651,7.42172898 123.732702,7.19003689 C123.410202,6.8421461 123.059314,6.58770798 122.679332,6.4265462 C122.29935,6.26538443 121.86453,6.18497986 121.37505,6.18497986 C120.382336,6.18497986 119.577409,6.51682501 118.958858,7.18016264 C118.340307,7.84420558 118.031208,8.72354231 118.031208,9.81834917 C118.031208,10.5143071 118.175971,11.1358555 118.465851,11.6835234 C118.75573,12.231544 119.161809,12.6594867 119.683909,12.9689384 C120.205481,13.2780376 120.801286,13.4328516 121.471677,13.4328516 C122.347663,13.4328516 123.056316,13.2075072 123.597637,12.7561132 C123.842024,12.5760846 124.080593,12.4854531 124.312814,12.4854531 C124.492666,12.4854531 124.660352,12.5436406 124.815166,12.6594867 C125.059554,12.8659642 125.182277,13.0976563 125.182277,13.3554446 C125.182277,13.5486977 125.104869,13.7225549 124.950055,13.8773689 C124.022405,14.7404837 122.86324,15.1723056 121.471677,15.1723056 C120.453395,15.1723056 119.53844,14.9400845 118.727166,14.4763477 C117.915362,14.0124345 117.280412,13.3716666 116.823023,12.5535149 C116.365634,11.7351869 116.13694,10.8234062 116.13694,9.81834917 C116.13694,8.78754858 116.359286,7.86342509 116.803804,7.04509708 C117.248321,6.2269454 117.870046,5.58917501 118.668978,5.13160957 C119.46791,4.67422046 120.369993,4.44552591 121.37505,4.44552591 C122.895155,4.44552591 124.158,5.02528512 125.163057,6.18497986 C125.291775,6.32692213 125.35631,6.49407898 125.35631,6.68733205 C125.35631,6.9706876 125.214368,7.2092564 124.930836,7.40250947 L124.930836,7.40250947 Z M111.015557,7.96287284 C110.718801,7.40938617 110.310254,6.97421412 109.788153,6.65823829 C109.266758,6.34279145 108.683119,6.18497986 108.039354,6.18497986 C107.39453,6.18497986 106.81195,6.34279145 106.290026,6.65823829 C105.767925,6.97421412 105.355499,7.40938617 105.053277,7.96287284 C104.750173,8.51706481 104.598885,9.13561569 104.598885,9.81834917 C104.598885,10.5014353 104.750173,11.116636 105.053277,11.6643039 C105.355499,12.2117955 105.767925,12.6436174 106.290026,12.9590642 C106.81195,13.27504 107.39453,13.4328516 108.039354,13.4328516 C108.683119,13.4328516 109.266758,13.27504 109.788153,12.9590642 C110.310254,12.6436174 110.718801,12.2117955 111.015557,11.6643039 C111.311784,11.116636 111.460074,10.5014353 111.460074,9.81834917 C111.460074,9.13561569 111.311784,8.51706481 111.015557,7.96287284 L111.015557,7.96287284 Z M113.073984,14.8335837 C112.887079,15.021018 112.652037,15.1141181 112.368505,15.1141181 C112.085149,15.1141181 111.849578,15.021018 111.663202,14.8335837 C111.475944,14.6473837 111.382844,14.4121651 111.382844,14.1282805 L111.382844,13.4136321 C110.931802,13.9676477 110.384134,14.3989406 109.73984,14.7083924 C109.095722,15.0174915 108.399587,15.1723056 107.652319,15.1723056 C106.724845,15.1723056 105.8843,14.9400845 105.130155,14.4763477 C104.376538,14.0124345 103.784083,13.3716666 103.352262,12.5535149 C102.92044,11.7351869 102.704617,10.8234062 102.704617,9.81834917 C102.704617,8.81329214 102.936662,7.90186412 103.400575,7.08353611 C103.864312,6.26538443 104.505256,5.62161895 105.323937,5.15082908 C106.141736,4.68074452 107.04664,4.44552591 108.039354,4.44552591 C109.03101,4.44552591 109.930095,4.68074452 110.735552,5.15082908 C111.540479,5.62161895 112.178249,6.26538443 112.64851,7.08353611 C113.118771,7.90186412 113.354342,8.81329214 113.354342,9.81834917 L113.354342,14.1282805 C113.354342,14.4121651 113.260713,14.6473837 113.073984,14.8335837 L113.073984,14.8335837 Z M97.5931085,7.94365333 C97.3032289,7.38963769 96.8971506,6.95799214 96.37505,6.64889303 C95.8536546,6.33926493 95.2640211,6.18497986 94.6070312,6.18497986 C93.9500413,6.18497986 93.3604079,6.33926493 92.8384835,6.64889303 C92.3165592,6.95799214 91.907307,7.38963769 91.6110797,7.94365333 C91.3143234,8.4978453 91.1665623,9.12274391 91.1665623,9.81834917 C91.1665623,10.5143071 91.3143234,11.1358555 91.6110797,11.6835234 C91.907307,12.231544 92.3165592,12.6594867 92.8384835,12.9689384 C93.3604079,13.2780376 93.9500413,13.4328516 94.6070312,13.4328516 C95.2640211,13.4328516 95.8536546,13.2780376 96.37505,12.9689384 C96.8971506,12.6594867 97.3032289,12.231544 97.5931085,11.6835234 C97.8829882,11.1358555 98.027928,10.5143071 98.027928,9.81834917 C98.027928,9.12274391 97.8829882,8.4978453 97.5931085,7.94365333 L97.5931085,7.94365333 Z M99.2452812,16.776165 C98.7942399,17.6137125 98.159996,18.2742289 97.341668,18.7571853 C96.5235163,19.2406706 95.5988638,19.4822369 94.5680632,19.4822369 C93.6404132,19.4822369 92.7772985,19.2985055 91.9783663,18.9312188 C91.1792578,18.5639322 90.5095724,18.0390103 89.9682523,17.3562768 C89.82631,17.1755429 89.7557797,16.9949853 89.7557797,16.815133 C89.7557797,16.5444729 89.8908452,16.3124281 90.1615053,16.1191751 C90.3418866,16.003329 90.5222679,15.9451415 90.7026492,15.9451415 C91.0246201,15.9451415 91.2887561,16.0807361 91.4952336,16.3513961 C91.8433007,16.8019086 92.2809414,17.1464492 92.8093898,17.3850179 C93.3378382,17.6235867 93.9366406,17.742783 94.6070312,17.742783 C95.2379249,17.742783 95.8116891,17.5909665 96.3267367,17.2883914 C96.8423133,16.98564 97.2549157,16.5411227 97.5640148,15.9550158 C97.8731139,15.3683798 98.027928,14.6696007 98.027928,13.8576204 L98.027928,12.9107509 C97.6281974,13.6195806 97.1001016,14.1735963 96.4431117,14.5729742 C95.7861218,14.9727048 95.0448482,15.1723056 94.2205251,15.1723056 C93.2667789,15.1723056 92.4130094,14.943611 91.6593929,14.4862219 C90.9057765,14.0286565 90.3193169,13.3938836 89.9007195,12.5820797 C89.4817694,11.7706284 89.2728233,10.8495024 89.2728233,9.81834917 C89.2728233,8.77485312 89.4979914,7.84720312 89.9490327,7.03539917 C90.4000741,6.22341889 91.0314968,5.58917501 91.8433007,5.13160957 C92.6545757,4.67422046 93.575878,4.44552591 94.6070312,4.44552591 C95.6244311,4.44552591 96.5363881,4.67422046 97.341668,5.13160957 C98.1465952,5.58917501 98.7780179,6.22341889 99.235936,7.03539917 C99.6929724,7.84720312 99.9220196,8.77485312 99.9220196,9.81834917 L99.9220196,13.993215 C99.9220196,15.0111438 99.6963226,15.9387938 99.2452812,16.776165 L99.2452812,16.776165 Z M84.1701312,6.88058512 C83.6416828,6.36536115 82.9526016,6.10757284 82.1023586,6.10757284 C81.1614842,6.10757284 80.3983461,6.36536115 79.8118865,6.88058512 C79.2257796,7.39616174 78.8554954,8.08577192 78.7008577,8.94871035 L85.1367492,8.94871035 C85.0209031,8.08577192 84.6985796,7.39616174 84.1701312,6.88058512 L84.1701312,6.88058512 Z M86.6637306,10.2535212 C86.4962211,10.414683 86.2832195,10.4950876 86.0259602,10.4950876 L78.6816382,10.4950876 C78.8230515,11.396994 79.2321273,12.1250432 79.9085131,12.6792352 C80.5852515,13.2332508 81.4127484,13.5102586 82.3922382,13.5102586 C82.7787443,13.5102586 83.1812961,13.4391993 83.6004225,13.2972571 C84.0188437,13.1558438 84.3639132,12.9818102 84.634397,12.7756854 C84.8144256,12.6337431 85.0272509,12.5628601 85.2718147,12.5628601 C85.5167313,12.5628601 85.7099843,12.6273954 85.8519266,12.7561132 C86.0836187,12.94919 86.1999937,13.1685392 86.1999937,13.4136321 C86.1999937,13.6451479 86.0964905,13.8384009 85.8903656,13.993215 C85.452196,14.3412821 84.9080546,14.6246377 84.2574124,14.843458 C83.6067703,15.0628072 82.9846929,15.1723056 82.3922382,15.1723056 C81.3355177,15.1723056 80.3884719,14.943611 79.5511007,14.4862219 C78.7135532,14.0286565 78.0595608,13.3938836 77.5892999,12.5820797 C77.119039,11.7706284 76.8839967,10.8495024 76.8839967,9.81834917 C76.8839967,8.78754858 77.1061672,7.86342509 77.5508609,7.04509708 C77.9955545,6.2269454 78.6135764,5.58917501 79.4061609,5.13160957 C80.1987453,4.67422046 81.0973016,4.44552591 82.1023586,4.44552591 C83.0945438,4.44552591 83.9513109,4.6648752 84.6730123,5.10251582 C85.3945375,5.54086174 85.9485531,6.15306489 86.3350593,6.93877263 C86.7213891,7.72483302 86.9146422,8.62691578 86.9146422,9.64431561 C86.9146422,9.88923214 86.8308874,10.0923595 86.6637306,10.2535212 L86.6637306,10.2535212 Z M74.5258156,14.8050189 C74.3325625,14.998272 74.0939937,15.0948985 73.8111671,15.0948985 L65.80915,15.0948985 C65.5257944,15.0948985 65.2907521,14.998272 65.1038468,14.8050189 C64.9171178,14.6117659 64.8238414,14.3731971 64.8238414,14.0898415 L64.8238414,1.00505702 C64.8238414,0.722054125 64.920468,0.483485326 65.113721,0.289879605 C65.3069741,0.0966265349 65.5386662,0 65.80915,0 C66.0926818,0 66.3312506,0.0966265349 66.5245037,0.289879605 C66.7175805,0.483485326 66.814207,0.722054125 66.814207,1.00505702 L66.814207,13.0847845 L73.8111671,13.0847845 C74.0939937,13.0847845 74.3325625,13.181411 74.5258156,13.3746641 C74.7190686,13.5679172 74.8162242,13.806486 74.8162242,14.0898415 C74.8162242,14.3731971 74.7190686,14.6117659 74.5258156,14.8050189 L74.5258156,14.8050189 Z" id="Fill-18" fill="#FFFFFF"></path>
                </g>
            </g>
        </g>
    </g>
</svg>