<?xml version="1.0" encoding="UTF-8"?>
<svg width="184px" height="55px" viewBox="0 0 184 55" version="1.1" xmlns="http://www.w3.org/2000/svg" xmlns:xlink="http://www.w3.org/1999/xlink">
    <title>9CE63037-A506-4208-973E-7607374F4990</title>
    <defs>
        <path d="M0.453037388,12.5843084 L18.320116,18.5421595 C20.4042022,19.1671569 21.9899283,17.0510781 21.9101373,13.8293519 L21.9101373,13.8293519 C21.8282516,10.4988891 20.0654239,7.35600178 18.0230423,6.59275089 L18.0230423,6.59275089 L0,0 L0.453037388,12.5843084 Z" id="path-1"></path>
        <linearGradient x1="-0.000334144026%" y1="50.0003752%" x2="100.000048%" y2="50.0003752%" id="linearGradient-3">
            <stop stop-color="#0A706B" offset="0%"></stop>
            <stop stop-color="#04C382" offset="100%"></stop>
        </linearGradient>
        <polygon id="path-4" points="0 0 29.2140179 0 29.2140179 19.5194505 0 19.5194505"></polygon>
        <path d="M0.23480248,13.1451302 L16.931106,18.2113794 C19.1797254,18.8167622 21.1744991,16.743721 21.2906625,13.1019022 L21.2906625,13.1019022 C21.4125389,9.27707835 19.5263113,6.08620215 17.2597914,5.51909608 L17.2597914,5.51909608 L0,0 L0.23480248,13.1451302 Z" id="path-6"></path>
        <linearGradient x1="-0.92741853%" y1="57.8886082%" x2="95.1471581%" y2="40.3254618%" id="linearGradient-8">
            <stop stop-color="#0A706B" offset="0%"></stop>
            <stop stop-color="#04C382" offset="100%"></stop>
        </linearGradient>
        <path d="M0.23480248,13.145892 L16.9312964,18.2115698 C19.1799158,18.8167622 21.1744991,16.743721 21.2906625,13.1020926 L21.2906625,13.1020926 C21.4123484,9.27726878 19.5265018,6.08696388 17.2596009,5.51947695 L17.2596009,5.51947695 L0,0 L0.23480248,13.145892 Z" id="path-9"></path>
        <linearGradient x1="0.000125546256%" y1="50.0001749%" x2="99.999777%" y2="50.0001749%" id="linearGradient-11">
            <stop stop-color="#0A706B" offset="0%"></stop>
            <stop stop-color="#04C382" offset="100%"></stop>
        </linearGradient>
        <polygon id="path-12" points="1.69137466e-16 0 29.5330386 0 29.5330386 20.2914285 1.69137466e-16 20.2914285"></polygon>
    </defs>
    <g id="Login" stroke="none" stroke-width="1" fill="none" fill-rule="evenodd">
        <g id="login" transform="translate(-628.000000, -199.000000)">
            <g id="logo" transform="translate(628.810563, 199.500000)">
                <g id="Group-3" transform="translate(28.769493, 0.000000)">
                    <mask id="mask-2" fill="white">
                        <use xlink:href="#path-1"></use>
                    </mask>
                    <g id="Clip-2"></g>
                    <path d="M0.453037388,12.5843084 L18.320116,18.5421595 C20.4042022,19.1671569 21.9899283,17.0510781 21.9101373,13.8293519 L21.9101373,13.8293519 C21.8282516,10.4988891 20.0654239,7.35600178 18.0230423,6.59275089 L18.0230423,6.59275089 L0,0 L0.453037388,12.5843084 Z" id="Fill-1" fill="url(#linearGradient-3)" mask="url(#mask-2)"></path>
                </g>
                <g id="Group-6" transform="translate(0.000000, 0.000190)">
                    <mask id="mask-5" fill="white">
                        <use xlink:href="#path-4"></use>
                    </mask>
                    <g id="Clip-5"></g>
                    <path d="M0.0644230973,14.7916422 C-0.438126574,11.1462051 2.05957766,7.31547788 5.45592984,6.37626796 L28.9175155,-0.000152345486 L29.2140179,12.7325025 L7.01728063,19.2031866 C3.72966505,20.3099765 0.566972768,18.4340323 0.0644230973,14.7916422" id="Fill-4" fill="#06C482" mask="url(#mask-5)"></path>
                </g>
                <g id="Group-9" transform="translate(29.307082, 16.680688)">
                    <mask id="mask-7" fill="white">
                        <use xlink:href="#path-6"></use>
                    </mask>
                    <g id="Clip-8"></g>
                    <path d="M0.23480248,13.1451302 L16.931106,18.2113794 C19.1797254,18.8167622 21.1744991,16.743721 21.2906625,13.1019022 L21.2906625,13.1019022 C21.4125389,9.27707835 19.5263113,6.08620215 17.2597914,5.51909608 L17.2597914,5.51909608 L0,0 L0.23480248,13.1451302 Z" id="Fill-7" fill="url(#linearGradient-8)" mask="url(#mask-7)"></path>
                </g>
                <path d="M0.101652525,32.1403842 C-0.521250079,28.422964 2.06386238,24.4937835 5.64550475,23.5456232 L29.4502486,16.5341127 L29.5418463,29.825685 L7.48850426,36.4709951 C4.08834345,37.6453884 0.718651742,35.8242885 0.101652525,32.1403842" id="Fill-10" fill="#04C482"></path>
                <g id="Group-14" transform="translate(29.455048, 33.854976)">
                    <mask id="mask-10" fill="white">
                        <use xlink:href="#path-9"></use>
                    </mask>
                    <g id="Clip-13"></g>
                    <path d="M0.23480248,13.145892 L16.9312964,18.2115698 C19.1799158,18.8167622 21.1744991,16.743721 21.2906625,13.1020926 L21.2906625,13.1020926 C21.4123484,9.27726878 19.5265018,6.08696388 17.2596009,5.51947695 L17.2596009,5.51947695 L0,0 L0.23480248,13.145892 Z" id="Fill-12" fill="url(#linearGradient-11)" mask="url(#mask-10)"></path>
                </g>
                <g transform="translate(0.156830, 3.973551)">
                    <g id="Group-17" transform="translate(0.000000, 29.735020)">
                        <mask id="mask-13" fill="white">
                            <use xlink:href="#path-12"></use>
                        </mask>
                        <g id="Clip-16"></g>
                        <path d="M0.0928447424,15.6062716 C-0.530057862,11.8888513 2.0550546,7.95967076 5.63669697,7.01151055 L29.4414408,0 L29.5330386,13.2921436 L7.47969648,19.9368824 C4.08010697,21.111847 0.70984396,19.2899854 0.0928447424,15.6062716" id="Fill-15" fill="#04C482" mask="url(#mask-13)"></path>
                    </g>
                    <path d="M181.63799,36.1392057 C181.484692,36.2509892 181.28988,36.3064049 181.053364,36.3064049 C180.691543,36.3064049 180.364572,36.1742451 180.072259,35.9097353 C179.72415,35.5898098 179.355283,35.364148 178.966231,35.2316075 C178.575846,35.0994477 178.102622,35.032987 177.546371,35.032987 C176.90652,35.032987 176.381118,35.1411523 175.970738,35.3567212 C175.560167,35.5728613 175.354691,35.8750767 175.354691,36.2648907 C175.354691,36.5433021 175.424389,36.7758194 175.563404,36.9637756 C175.702419,37.1517319 175.966929,37.3257866 176.356553,37.4859398 C176.746367,37.6457121 177.309474,37.8028184 178.047397,37.9555447 C179.563996,38.2617592 180.639365,38.6858509 181.27217,39.2289626 C181.905737,39.7713125 182.222044,40.4740061 182.222044,41.3370432 C182.222044,41.9774656 182.047799,42.5582827 181.700261,43.0798756 C181.352152,43.6016589 180.841032,44.0126108 180.166142,44.3117793 C179.491061,44.6109477 178.680773,44.7604367 177.734327,44.7604367 C176.787881,44.7604367 175.897612,44.6141851 175.062378,44.3218722 C174.227715,44.0295593 173.573582,43.6467912 173.100358,43.1741394 C172.919258,42.9930387 172.829374,42.7770889 172.829374,42.5268615 C172.829374,42.1930344 172.968199,41.9214786 173.24661,41.7127653 C173.510739,41.5179535 173.754492,41.4206428 173.977107,41.4206428 C174.255518,41.4206428 174.520028,41.5457565 174.770255,41.7963649 C175.034765,42.0886778 175.431435,42.3425234 175.960074,42.5582827 C176.488522,42.7738516 177.052391,42.8818265 177.650728,42.8818265 C178.443876,42.8818265 179.059733,42.7492859 179.497917,42.4853473 C179.936672,42.220647 180.155859,41.8660629 180.155859,41.4206428 C180.155859,40.9893147 179.939909,40.6311123 179.508581,40.3452741 C179.077443,40.0603881 178.346566,39.8204439 177.316901,39.6256321 C174.645142,39.1107044 173.309453,38.0115317 173.309453,36.3271619 C173.309453,35.6457967 173.510739,35.0680265 173.914835,34.5948033 C174.317789,34.1221515 174.846809,33.766996 175.501133,33.5300988 C176.154885,33.2937729 176.850533,33.1757051 177.588456,33.1757051 C178.492817,33.1757051 179.303105,33.3215759 180.020271,33.6136984 C180.736676,33.9060113 181.303591,34.3095364 181.721018,34.8242737 C181.901928,35.0474599 181.992574,35.2698843 181.992574,35.4923087 C181.992574,35.7292059 181.874316,35.9449652 181.63799,36.1392057 L181.63799,36.1392057 Z M167.819873,42.0258353 C168.125517,42.4017477 168.501429,42.5895136 168.946849,42.5895136 L169.656589,42.5895136 C169.907197,42.5895136 170.119148,42.6870147 170.293202,42.8818265 C170.467257,43.0766382 170.554094,43.3268657 170.554094,43.6330801 C170.554094,43.9391041 170.439644,44.1899029 170.209603,44.3847147 C169.980132,44.5795265 169.684201,44.6768371 169.322762,44.6768371 L168.946849,44.6768371 C168.264913,44.6768371 167.6422,44.4991642 167.078903,44.1445801 C166.515225,43.7894247 166.073232,43.3061086 165.753307,42.6938702 C165.43281,42.0818222 165.273228,41.3928398 165.273228,40.6273037 L165.273228,35.4715516 L164.31288,35.4715516 C164.020567,35.4715516 163.784241,35.3881424 163.603331,35.2209433 C163.42223,35.0543154 163.331775,34.8450308 163.331775,34.5948033 C163.331775,34.316392 163.42223,34.0939675 163.603331,33.9267684 C163.784241,33.7601405 164.020567,33.6765409 164.31288,33.6765409 L165.273228,33.6765409 L165.273228,30.6703836 C165.273228,30.3649309 165.370539,30.1141322 165.565351,29.9193204 C165.760353,29.7245086 166.01058,29.6270075 166.317176,29.6270075 C166.622628,29.6270075 166.873427,29.7245086 167.068239,29.9193204 C167.263051,30.1141322 167.360552,30.3649309 167.360552,30.6703836 L167.360552,33.6765409 L169.134805,33.6765409 C169.427118,33.6765409 169.663444,33.7601405 169.844354,33.9267684 C170.025455,34.0939675 170.11591,34.316392 170.11591,34.5948033 C170.11591,34.8450308 170.025455,35.0543154 169.844354,35.2209433 C169.663444,35.3881424 169.427118,35.4715516 169.134805,35.4715516 L167.360552,35.4715516 L167.360552,40.6273037 C167.360552,41.1841264 167.513278,41.6501132 167.819873,42.0258353 L167.819873,42.0258353 Z M160.743426,36.3692474 C160.604601,36.466558 160.444257,36.5151182 160.263918,36.5151182 C159.943421,36.5151182 159.671865,36.3900044 159.449441,36.1392057 C159.101713,35.7638645 158.722182,35.4892618 158.311801,35.315207 C157.90123,35.1411523 157.431816,35.0543154 156.903177,35.0543154 C155.831045,35.0543154 154.961724,35.4125177 154.293689,36.1291128 C153.626035,36.8460887 153.291827,37.7959628 153.291827,38.9781638 C153.291827,39.7297984 153.448172,40.4010707 153.761242,40.992552 C154.074883,41.5840333 154.512876,42.0465923 155.076745,42.3804194 C155.639852,42.7146273 156.283511,42.8818265 157.007533,42.8818265 C157.953408,42.8818265 158.718944,42.638645 159.30357,42.150949 C159.567509,41.9561372 159.825163,41.8586361 160.075962,41.8586361 C160.270202,41.8586361 160.451303,41.9214786 160.618312,42.0465923 C160.882441,42.269588 161.014981,42.5198155 161.014981,42.7982269 C161.014981,43.0069402 160.931382,43.1948964 160.764754,43.3615243 C159.762321,44.2942595 158.510231,44.7604367 157.007533,44.7604367 C155.907789,44.7604367 154.92021,44.5098284 154.043462,44.0088022 C153.166713,43.5079664 152.480968,42.815937 151.986988,41.9315715 C151.493008,41.048539 151.246018,40.0636254 151.246018,38.9781638 C151.246018,37.8650896 151.485962,36.8668458 151.966231,35.9826707 C152.44631,35.0994477 153.117582,34.4106557 153.980619,33.9166755 C154.843466,33.4226952 155.817715,33.1757051 156.903177,33.1757051 C158.54489,33.1757051 159.908763,33.8016546 160.994224,35.0543154 C161.13324,35.207613 161.202938,35.3881424 161.202938,35.5966653 C161.202938,35.9028798 161.04964,36.1605341 160.743426,36.3692474 L160.743426,36.3692474 Z M145.735681,35.8053786 C145.164957,35.2491272 144.420749,34.9707158 143.502487,34.9707158 C142.486152,34.9707158 141.662153,35.2491272 141.028587,35.8053786 C140.395782,36.3622014 139.995303,37.1069804 139.828866,38.0391443 L146.779629,38.0391443 C146.654515,37.1069804 146.306406,36.3622014 145.735681,35.8053786 L145.735681,35.8053786 Z M148.428769,39.4477688 C148.247858,39.6223948 148.017817,39.7090413 147.739977,39.7090413 L139.808109,39.7090413 C139.960835,40.6832907 140.402637,41.4695838 141.132943,42.0673494 C141.864011,42.6662576 142.757708,42.9648547 143.815557,42.9648547 C144.232793,42.9648547 144.667739,42.8888724 145.120206,42.7355748 C145.572291,42.582658 145.944966,42.3947018 146.236517,42.1717061 C146.431519,42.0189797 146.661371,41.9422357 146.9255,41.9422357 C147.190009,41.9422357 147.398723,42.0119337 147.55202,42.150949 C147.802248,42.3596623 147.927362,42.5965595 147.927362,42.8604981 C147.927362,43.1112968 147.816149,43.3200102 147.593535,43.4872093 C147.120311,43.8623601 146.532639,44.1691458 145.829945,44.4054717 C145.127252,44.642369 144.455408,44.7604367 143.815557,44.7604367 C142.674108,44.7604367 141.651489,44.5134466 140.747128,44.0194664 C139.842577,43.5254861 139.136265,42.839741 138.628384,41.9629927 C138.120502,41.0862445 137.866466,40.0918093 137.866466,38.9781638 C137.866466,37.8650896 138.1066,36.8668458 138.586869,35.9826707 C139.066948,35.0994477 139.734602,34.4106557 140.590593,33.9166755 C141.446585,33.4226952 142.417025,33.1757051 143.502487,33.1757051 C144.573476,33.1757051 145.499355,33.4120311 146.278603,33.8852542 C147.05804,34.3584774 147.656377,35.0196568 148.073804,35.8682212 C148.49104,36.7173568 148.699753,37.6916062 148.699753,38.7902076 C148.699753,39.0549079 148.609298,39.2740949 148.428769,39.4477688 L148.428769,39.4477688 Z M132.690147,42.0258353 C132.996171,42.4017477 133.371893,42.5895136 133.817504,42.5895136 L134.527243,42.5895136 C134.77728,42.5895136 134.989802,42.6870147 135.163857,42.8818265 C135.33734,43.0766382 135.424748,43.3268657 135.424748,43.6330801 C135.424748,43.9391041 135.309728,44.1899029 135.080257,44.3847147 C134.850787,44.5795265 134.554856,44.6768371 134.192845,44.6768371 L133.817504,44.6768371 C133.135567,44.6768371 132.512855,44.4991642 131.948986,44.1445801 C131.385879,43.7894247 130.943506,43.3061086 130.62358,42.6938702 C130.303655,42.0818222 130.143883,41.3928398 130.143883,40.6273037 L130.143883,35.4715516 L129.183535,35.4715516 C128.891222,35.4715516 128.654325,35.3881424 128.473795,35.2209433 C128.292885,35.0543154 128.20243,34.8450308 128.20243,34.5948033 C128.20243,34.316392 128.292885,34.0939675 128.473795,33.9267684 C128.654325,33.7601405 128.891222,33.6765409 129.183535,33.6765409 L130.143883,33.6765409 L130.143883,30.6703836 C130.143883,30.3649309 130.240812,30.1141322 130.436005,29.9193204 C130.630436,29.7245086 130.881044,29.6270075 131.187259,29.6270075 C131.493283,29.6270075 131.74351,29.7245086 131.938893,29.9193204 C132.133324,30.1141322 132.231206,30.3649309 132.231206,30.6703836 L132.231206,33.6765409 L134.00546,33.6765409 C134.297201,33.6765409 134.534099,33.7601405 134.715009,33.9267684 C134.895538,34.0939675 134.985993,34.316392 134.985993,34.5948033 C134.985993,34.8450308 134.895538,35.0543154 134.715009,35.2209433 C134.534099,35.3881424 134.297201,35.4715516 134.00546,35.4715516 L132.231206,35.4715516 L132.231206,40.6273037 C132.231206,41.1841264 132.383933,41.6501132 132.690147,42.0258353 L132.690147,42.0258353 Z M124.215739,33.2587334 C124.535664,33.2587334 124.793319,33.3566154 124.98813,33.5510463 C125.182942,33.746239 125.280443,34.0035124 125.280443,34.3234379 L125.280443,43.6123231 C125.280443,43.9183471 125.182942,44.172764 124.98813,44.3740505 C124.793319,44.5757178 124.535664,44.6768371 124.215739,44.6768371 C123.909524,44.6768371 123.655679,44.5757178 123.453821,44.3740505 C123.252154,44.172764 123.151606,43.9183471 123.151606,43.6123231 L123.151606,34.3234379 C123.151606,34.0035124 123.252154,33.746239 123.453821,33.5510463 C123.655679,33.3566154 123.909524,33.2587334 124.215739,33.2587334 L124.215739,33.2587334 Z M125.186751,30.9941178 C124.915195,31.2656736 124.591461,31.4012611 124.215739,31.4012611 C123.840398,31.4012611 123.516664,31.2656736 123.245298,30.9941178 C122.973742,30.7225619 122.837964,30.3993991 122.837964,30.023677 C122.837964,29.6477645 122.973742,29.3242208 123.245298,29.052665 C123.516664,28.7816805 123.840398,28.6459025 124.215739,28.6459025 C124.591461,28.6459025 124.915195,28.7816805 125.186751,29.052665 C125.457545,29.3242208 125.593323,29.6477645 125.593323,30.023677 C125.593323,30.3993991 125.457545,30.7225619 125.186751,30.9941178 L125.186751,30.9941178 Z M118.673981,44.3948076 C118.472124,44.5970462 118.217707,44.6977846 117.912254,44.6977846 C117.605468,44.6977846 117.351623,44.5970462 117.150336,44.3948076 C116.948097,44.1935211 116.847549,43.9391041 116.847549,43.6330801 L116.847549,38.4980851 C116.847549,37.3711094 116.544572,36.5187364 115.93938,35.9411566 C115.333997,35.364148 114.530755,35.0750725 113.528893,35.0750725 C112.944268,35.0750725 112.412011,35.1933307 111.931932,35.4296566 C111.451663,35.6665538 111.07575,35.9864793 110.804385,36.3900044 C110.5334,36.7935295 110.397622,37.2459956 110.397622,37.7468314 L110.397622,43.6330801 C110.397622,43.9391041 110.300312,44.1935211 110.10531,44.3948076 C109.910498,44.5970462 109.652843,44.6977846 109.332918,44.6977846 C109.026894,44.6977846 108.772858,44.5970462 108.571191,44.3948076 C108.369333,44.1935211 108.268213,43.9391041 108.268213,43.6330801 L108.268213,29.4390512 C108.268213,29.1191257 108.369333,28.8614714 108.571191,28.6666596 C108.772858,28.4718478 109.026894,28.3743467 109.332918,28.3743467 C109.652843,28.3743467 109.910498,28.4718478 110.10531,28.6666596 C110.300312,28.8614714 110.397622,29.1191257 110.397622,29.4390512 L110.397622,34.5532892 C110.842662,34.1078691 111.371301,33.7633778 111.98411,33.5200059 C112.596158,33.2768244 113.249911,33.1543768 113.94632,33.1543768 C114.906097,33.1543768 115.768943,33.3630901 116.534479,33.7808976 C117.299444,34.1983242 117.897781,34.8073253 118.32949,35.6073295 C118.760818,36.4075242 118.976387,37.3711094 118.976387,38.4980851 L118.976387,43.6330801 C118.976387,43.9391041 118.875649,44.1935211 118.673981,44.3948076 L118.673981,44.3948076 Z M104.219251,36.3692474 C104.079665,36.466558 103.919512,36.5151182 103.739173,36.5151182 C103.418676,36.5151182 103.14712,36.3900044 102.925076,36.1392057 C102.576967,35.7638645 102.197436,35.4892618 101.787436,35.315207 C101.376485,35.1411523 100.90707,35.0543154 100.378431,35.0543154 C99.3068711,35.0543154 98.4369784,35.4125177 97.7693243,36.1291128 C97.1012893,36.8460887 96.766891,37.7959628 96.766891,38.9781638 C96.766891,39.7297984 96.923426,40.4010707 97.2370673,40.992552 C97.5499468,41.5840333 97.9881305,42.0465923 98.5519992,42.3804194 C99.1156775,42.7146273 99.7587659,42.8818265 100.482788,42.8818265 C101.428663,42.8818265 102.194199,42.638645 102.778825,42.150949 C103.042763,41.9561372 103.300418,41.8586361 103.551216,41.8586361 C103.746028,41.8586361 103.926938,41.9214786 104.093566,42.0465923 C104.358267,42.269588 104.490236,42.5198155 104.490236,42.7982269 C104.490236,43.0069402 104.407208,43.1948964 104.240008,43.3615243 C103.238146,44.2942595 101.985486,44.7604367 100.482788,44.7604367 C99.3834247,44.7604367 98.3954642,44.5098284 97.518716,44.0088022 C96.6417773,43.5079664 95.9562226,42.815937 95.4628136,41.9315715 C94.968643,41.048539 94.7216529,40.0636254 94.7216529,38.9781638 C94.7216529,37.8650896 94.9617874,36.8668458 95.4420566,35.9826707 C95.921564,35.0994477 96.5928363,34.4106557 97.4558735,33.9166755 C98.3187202,33.4226952 99.2929696,33.1757051 100.378431,33.1757051 C102.020144,33.1757051 103.384017,33.8016546 104.469479,35.0543154 C104.608304,35.207613 104.678192,35.3881424 104.678192,35.5966653 C104.678192,35.9028798 104.524894,36.1605341 104.219251,36.3692474 L104.219251,36.3692474 Z M92.6758434,34.5112037 C92.5507297,34.9568143 92.2723183,35.1794291 91.8411806,35.1794291 C91.7714825,35.1794291 91.6671259,35.1655276 91.5281106,35.1373437 C90.9712879,35.0404139 90.5188218,34.9914729 90.1712836,34.9914729 C89.1694216,34.9914729 88.3623714,35.2209433 87.750133,35.6802649 C87.1375137,36.1392057 86.8312993,36.758871 86.8312993,37.5381181 L86.8312993,43.6330801 C86.8312993,43.967288 86.7444624,44.224371 86.5704076,44.4054717 C86.3963529,44.586382 86.1354613,44.6768371 85.7879231,44.6768371 C85.4540961,44.6768371 85.1964418,44.5901906 85.0155315,44.4161359 C84.8344308,44.2420812 84.7439757,43.9811896 84.7439757,43.6330801 L84.7439757,34.3026809 C84.7439757,33.9688538 84.8344308,33.7111995 85.0155315,33.5300988 C85.1964418,33.3497598 85.4540961,33.2587334 85.7879231,33.2587334 C86.4837611,33.2587334 86.8312993,33.6068429 86.8312993,34.3026809 L86.8312993,34.69916 C87.2491068,34.2120353 87.7634632,33.8298386 88.3760825,33.5510463 C88.9883209,33.2730158 89.6420735,33.1336197 90.3384828,33.1336197 C91.0756445,33.1336197 91.6532243,33.2454032 92.070651,33.4678276 C92.4884585,33.6904424 92.6971718,33.9688538 92.6971718,34.3026809 C92.6971718,34.3999915 92.6897449,34.4696896 92.6758434,34.5112037 L92.6758434,34.5112037 Z M75.184106,31.8602019 L72.1370059,39.2912338 L78.168935,39.2912338 L75.184106,31.8602019 Z M81.8433176,44.3639576 C81.634033,44.5726709 81.3763787,44.6768371 81.0707356,44.6768371 C80.8620223,44.6768371 80.6635923,44.6178033 80.4756361,44.4991642 C80.2876798,44.3814773 80.1524732,44.2175155 80.0688736,44.0088022 L78.9000029,41.0862445 L71.4061284,41.0862445 L70.2163102,44.0088022 C70.1189995,44.2175155 69.9794129,44.3814773 69.7988835,44.4991642 C69.6179733,44.6178033 69.4231615,44.6768371 69.2144482,44.6768371 C68.9084242,44.6768371 68.6543881,44.5688623 68.4527208,44.3532934 C68.250863,44.1377246 68.1497437,43.8836885 68.1497437,43.591566 C68.1497437,43.4525507 68.1844023,43.2922071 68.2541003,43.1112968 L74.1199728,29.1054146 C74.3286861,28.6182899 74.6693687,28.3743467 75.1425919,28.3743467 C75.6436181,28.3743467 75.9843007,28.6182899 76.165211,29.1054146 L82.0518405,43.152811 C82.1211577,43.3339117 82.1561972,43.4872093 82.1561972,43.6123231 C82.1561972,43.9044455 82.0518405,44.154673 81.8433176,44.3639576 L81.8433176,44.3639576 Z M148.073804,6.3040562 L141.686719,20.6650938 C141.51952,21.0962316 141.247964,21.3118004 140.872623,21.3118004 C140.733227,21.3118004 140.566028,21.2702863 140.371787,21.1866867 C139.95398,21.0057764 139.745266,20.7342206 139.745266,20.3727809 C139.745266,20.2055818 139.787161,20.0389539 139.870761,19.8719452 L141.958085,15.1749434 L137.261273,6.26254205 C137.191575,6.13685703 137.156917,5.99098623 137.156917,5.82378705 C137.156917,5.64344809 137.212332,5.47624892 137.324116,5.32295127 C137.435328,5.17003449 137.581199,5.05139544 137.762299,4.96779586 C137.887794,4.91238019 138.026809,4.88476757 138.180107,4.88476757 C138.569159,4.88476757 138.861472,5.07957936 139.056284,5.46920294 L142.876537,13.0668627 L146.237088,5.48996001 C146.417618,5.0864349 146.689174,4.88476757 147.050994,4.88476757 C147.231524,4.88476757 147.398723,4.91942617 147.55202,4.98912423 C147.983158,5.1557521 148.199298,5.42730793 148.199298,5.80302998 C148.199298,5.94261653 148.157213,6.10924441 148.073804,6.3040562 L148.073804,6.3040562 Z M134.77728,7.99471023 C134.638455,8.09221134 134.478302,8.14058103 134.297201,8.14058103 C133.977276,8.14058103 133.70572,8.0154673 133.483296,7.76523984 C133.134996,7.38951778 132.756036,7.11472461 132.345656,6.9406699 C131.935275,6.76661518 131.46567,6.67977825 130.937031,6.67977825 C129.8649,6.67977825 128.995578,7.03817101 128.327544,7.75457565 C127.659509,8.47174203 127.325682,9.4214257 127.325682,10.6038171 C127.325682,11.3554516 127.482026,12.0267239 127.795096,12.6182053 C128.108166,13.2100675 128.546731,13.6722456 129.110599,14.0064535 C129.673897,14.3402806 130.317366,14.5074797 131.041388,14.5074797 C131.987453,14.5074797 132.752799,14.2641078 133.337425,13.7766023 C133.601363,13.5821713 133.859018,13.4842894 134.109816,13.4842894 C134.304057,13.4842894 134.485158,13.5471319 134.652357,13.6722456 C134.916295,13.8952413 135.048836,14.1454688 135.048836,14.4238802 C135.048836,14.6325935 134.965236,14.8203593 134.798037,14.9875585 C133.796175,15.9197224 132.544276,16.38609 131.041388,16.38609 C129.941644,16.38609 128.953493,16.1352913 128.077316,15.6344555 C127.200568,15.1334293 126.514823,14.4413999 126.020842,13.5577961 C125.526862,12.6740018 125.279872,11.6892787 125.279872,10.6038171 C125.279872,9.49055246 125.520007,8.4924991 126.000085,7.60870485 C126.480164,6.72510103 127.151627,6.03630901 128.014474,5.54213834 C128.87732,5.0481581 129.85157,4.80116798 130.937031,4.80116798 C132.578744,4.80116798 133.942617,5.42730793 135.028079,6.67977825 C135.167094,6.8330759 135.236792,7.0136053 135.236792,7.22231861 C135.236792,7.52834261 135.083495,7.78599691 134.77728,7.99471023 L134.77728,7.99471023 Z M119.748779,8.59990267 C119.428282,8.00213707 118.987051,7.53215125 118.423183,7.19089736 C117.860076,6.85021476 117.229746,6.67977825 116.534479,6.67977825 C115.83807,6.67977825 115.208883,6.85021476 114.645205,7.19089736 C114.081336,7.53215125 113.635916,8.00213707 113.309516,8.59990267 C112.982164,9.19843 112.818773,9.86646495 112.818773,10.6038171 C112.818773,11.3415501 112.982164,12.0059669 113.309516,12.5974482 C113.635916,13.1887391 114.081336,13.6551067 114.645205,13.9957893 C115.208883,14.3370432 115.83807,14.5074797 116.534479,14.5074797 C117.229746,14.5074797 117.860076,14.3370432 118.423183,13.9957893 C118.987051,13.6551067 119.428282,13.1887391 119.748779,12.5974482 C120.068704,12.0059669 120.228858,11.3415501 120.228858,10.6038171 C120.228858,9.86646495 120.068704,9.19843 119.748779,8.59990267 L119.748779,8.59990267 Z M121.97188,16.0202704 C121.770023,16.2226995 121.516177,16.3232475 121.209962,16.3232475 C120.903938,16.3232475 120.649521,16.2226995 120.448235,16.0202704 C120.245996,15.8191744 120.145448,15.5651383 120.145448,15.258543 L120.145448,14.4867227 C119.658324,15.0850596 119.066842,15.5508559 118.371004,15.8850638 C117.675357,16.2188908 116.923532,16.38609 116.116482,16.38609 C115.11481,16.38609 114.207021,16.1352913 113.392544,15.6344555 C112.578639,15.1334293 111.938787,14.4413999 111.47242,13.5577961 C111.006052,12.6740018 110.772964,11.6892787 110.772964,10.6038171 C110.772964,9.51835552 111.023572,8.53401325 111.524598,7.650219 C112.025434,6.76661518 112.717654,6.07134847 113.601829,5.56289541 C114.485052,5.05520408 115.462348,4.80116798 116.534479,4.80116798 C117.605468,4.80116798 118.57648,5.05520408 119.446373,5.56289541 C120.315694,6.07134847 121.004486,6.76661518 121.512368,7.650219 C122.02025,8.53401325 122.274667,9.51835552 122.274667,10.6038171 L122.274667,15.258543 C122.274667,15.5651383 122.173548,15.8191744 121.97188,16.0202704 L121.97188,16.0202704 Z M105.252535,8.5791456 C104.939465,7.9808087 104.5009,7.51463151 103.937031,7.18080447 C103.373924,6.84640613 102.73712,6.67977825 102.027571,6.67977825 C101.318022,6.67977825 100.681218,6.84640613 100.11754,7.18080447 C99.5538612,7.51463151 99.1118689,7.9808087 98.7919434,8.5791456 C98.4714465,9.17767292 98.3118647,9.85256342 98.3118647,10.6038171 C98.3118647,11.3554516 98.4714465,12.0267239 98.7919434,12.6182053 C99.1118689,13.2100675 99.5538612,13.6722456 100.11754,14.0064535 C100.681218,14.3402806 101.318022,14.5074797 102.027571,14.5074797 C102.73712,14.5074797 103.373924,14.3402806 103.937031,14.0064535 C104.5009,13.6722456 104.939465,13.2100675 105.252535,12.6182053 C105.565605,12.0267239 105.72214,11.3554516 105.72214,10.6038171 C105.72214,9.85256342 105.565605,9.17767292 105.252535,8.5791456 L105.252535,8.5791456 Z M107.036881,18.1182582 C106.549756,19.0228095 105.864773,19.7361672 104.980979,20.2577601 C104.097375,20.7799243 103.09875,21.0408159 101.985486,21.0408159 C100.983624,21.0408159 100.05146,20.8423859 99.1886129,20.4457163 C98.3255757,20.0490468 97.6023156,19.4821311 97.0176898,18.744779 C96.8643921,18.5495863 96.7882194,18.3545841 96.7882194,18.1603436 C96.7882194,17.8680307 96.9340902,17.6174224 97.2264031,17.4087091 C97.4212149,17.2835954 97.6160266,17.2207528 97.8108384,17.2207528 C98.158567,17.2207528 98.4438339,17.3671949 98.6668296,17.6595078 C99.0427421,18.1460612 99.515394,18.5181651 100.086118,18.7758194 C100.656843,19.0334737 101.303549,19.1622056 102.027571,19.1622056 C102.708936,19.1622056 103.328601,18.9982438 103.884853,18.6714627 C104.441676,18.3444912 104.887286,17.8644125 105.221113,17.231417 C105.55494,16.5978502 105.72214,15.8431688 105.72214,14.9662301 L105.72214,13.943611 C105.29043,14.7091471 104.720087,15.307484 104.010538,15.7388121 C103.300989,16.1705211 102.500413,16.38609 101.610144,16.38609 C100.580099,16.38609 99.6580275,16.1390999 98.8441217,15.6451197 C98.0302159,15.150949 97.3968396,14.4653943 96.9447544,13.588646 C96.4922883,12.7122786 96.2666265,11.7174626 96.2666265,10.6038171 C96.2666265,9.47684137 96.509808,8.47497937 96.9969327,7.5982311 C97.4840574,6.7212924 98.1659939,6.03630901 99.0427421,5.54213834 C99.9189191,5.0481581 100.913926,4.80116798 102.027571,4.80116798 C103.126363,4.80116798 104.111276,5.0481581 104.980979,5.54213834 C105.8503,6.03630901 106.532237,6.7212924 107.026788,7.5982311 C107.520388,8.47497937 107.767759,9.47684137 107.767759,10.6038171 L107.767759,15.1126722 C107.767759,16.2120353 107.524006,17.2138973 107.036881,18.1182582 L107.036881,18.1182582 Z M90.755719,7.43103193 C90.1849947,6.87459004 89.440787,6.59617867 88.5225246,6.59617867 C87.5063802,6.59617867 86.6821911,6.87459004 86.0488148,7.43103193 C85.4158193,7.98785468 85.0159124,8.73263367 84.8489036,9.66460718 L91.7996664,9.66460718 C91.6745527,8.73263367 91.3264433,7.98785468 90.755719,7.43103193 L90.755719,7.43103193 Z M93.4488063,11.0738029 C93.2678961,11.2478576 93.0378544,11.3346946 92.7600143,11.3346946 L84.8281466,11.3346946 C84.9808729,12.3087535 85.4226748,13.0950467 86.1531714,13.693574 C86.8840489,14.2919109 87.7777456,14.5910793 88.8355946,14.5910793 C89.2530212,14.5910793 89.6877771,14.5143353 90.1404337,14.3610376 C90.5923285,14.2083113 90.9650036,14.020355 91.2571261,13.7977402 C91.451557,13.6444426 91.6814083,13.567889 91.9455372,13.567889 C92.2100471,13.567889 92.4187604,13.637587 92.572058,13.7766023 C92.8222855,13.9851252 92.9479705,14.2220224 92.9479705,14.4867227 C92.9479705,14.7367597 92.836187,14.945473 92.6135722,15.1126722 C92.140349,15.4885847 91.5526763,15.7946087 90.8499828,16.0309346 C90.1472892,16.2678318 89.4754456,16.38609 88.8355946,16.38609 C87.6943365,16.38609 86.671527,16.1390999 85.7671661,15.6451197 C84.8626147,15.150949 84.156303,14.4653943 83.6484212,13.588646 C83.1405395,12.7122786 82.8866938,11.7174626 82.8866938,10.6038171 C82.8866938,9.49055246 83.1266379,8.4924991 83.6069071,7.60870485 C84.0871762,6.72510103 84.7546399,6.03630901 85.6106311,5.54213834 C86.4666223,5.0481581 87.437063,4.80116798 88.5225246,4.80116798 C89.5940847,4.80116798 90.5193931,5.03806521 91.2988307,5.51071708 C92.0780778,5.98413068 92.6764147,6.64531009 93.0938413,7.49387444 C93.5110775,8.34281966 93.7197909,9.31706904 93.7197909,10.4158609 C93.7197909,10.6803707 93.6293357,10.8997482 93.4488063,11.0738029 L93.4488063,11.0738029 Z M80.3398581,15.9894205 C80.1311448,16.1981338 79.8734905,16.3024904 79.5680378,16.3024904 L70.9258593,16.3024904 C70.6198353,16.3024904 70.3659896,16.1981338 70.1641319,15.9894205 C69.9624645,15.7807071 69.8617261,15.5230528 69.8617261,15.2170288 L69.8617261,1.08546159 C69.8617261,0.779818455 69.9660827,0.522164152 70.174796,0.313069973 C70.3835093,0.104356658 70.6337368,0 70.9258593,0 C71.2320737,0 71.489728,0.104356658 71.6984413,0.313069973 C71.9069642,0.522164152 72.0113209,0.779818455 72.0113209,1.08546159 L72.0113209,14.1315673 L79.5680378,14.1315673 C79.8734905,14.1315673 80.1311448,14.2359239 80.3398581,14.4446372 C80.5485715,14.6533505 80.6534994,14.9110048 80.6534994,15.2170288 C80.6534994,15.5230528 80.5485715,15.7807071 80.3398581,15.9894205 L80.3398581,15.9894205 Z" id="Fill-18" fill="#000000"></path>
                </g>
            </g>
        </g>
    </g>
</svg>